<svg width="343" height="93.60000000000001" viewBox="0 0 343 93.60000000000001" xmlns="http://www.w3.org/2000/svg">
    <g transform="matrix(0.13259668049692075,0,0,0.13259668049692075,-16.574585062115094,-6.245301931629906)" fill="#b469ff">
        <g xmlns="http://www.w3.org/2000/svg" transform="translate(0.000000,800.000000) scale(0.100000,-0.100000)" fill="#b469ff" stroke="none">
            <path d="M5974 7442 c-44 -58 -72 -86 -82 -84 -49 10 -274 13 -320 4 l-53 -9 -61 81 c-34 44 -63 83 -64 85 -6 7 -199 -78 -197 -86 0 -4 6 -50 12 -102 10 -83 10 -96 -3 -103 -50 -28 -172 -137 -217 -193 -60 -74 -57 -73 -188 -50 -47 8 -85 14 -86 12 -1 -1 -20 -45 -42 -97 l-40 -94 87 -67 87 -67 -14 -79 c-14 -76 -13 -258 2 -294 5 -13 -16 -32 -84 -80 -50 -35 -91 -68 -90 -74 0 -26 77 -190 87 -187 7 1 56 8 109 14 l96 12 26 -34 c45 -61 142 -159 200 -202 31 -23 57 -42 57 -43 1 0 -4 -36 -12 -80 -22 -138 -28 -127 82 -174 53 -23 98 -40 99 -39 1 2 30 41 65 87 l63 83 41 -8 c22 -4 107 -9 188 -9 l147 -1 62 -84 c34 -47 63 -87 65 -89 2 -2 47 14 100 35 l96 39 -6 50 c-4 28 -10 78 -14 111 -8 60 -7 63 17 77 68 41 183 153 247 241 l19 27 103 -17 c61 -10 106 -14 111 -8 4 5 25 49 45 98 l38 89 -23 19 c-13 10 -52 40 -87 65 l-63 47 8 61 c10 77 10 161 0 255 l-8 75 81 60 c56 41 79 64 75 75 -3 8 -20 53 -38 98 l-32 84 -45 -7 c-25 -3 -72 -8 -105 -12 l-60 -5 -38 54 c-38 55 -166 186 -201 205 -18 10 -18 13 -2 122 10 62 16 114 14 116 -1 2 -45 21 -96 43 l-92 41 -66 -87z m-165 -497 c171 -45 310 -177 361 -343 27 -87 27 -217 0 -304 -66 -213 -268 -360 -493 -357 -139 1 -266 58 -366 164 -261 280 -129 740 240 839 70 19 190 20 258 1z"></path>
            <path d="M3127 5953 c-26 -82 -47 -153 -47 -160 0 -6 -26 -17 -57 -23 -120 -24 -267 -61 -341 -86 -76 -26 -219 -95 -277 -133 l-30 -20 -142 89 c-78 49 -158 101 -178 116 l-36 27 -27 -24 c-67 -58 -252 -245 -252 -254 0 -5 47 -86 104 -179 l104 -169 -50 -76 c-97 -147 -197 -388 -228 -547 l-12 -61 -191 -47 c-106 -25 -198 -46 -204 -46 -10 0 -13 -47 -13 -204 l0 -205 58 -16 c31 -10 116 -30 187 -47 72 -16 137 -31 146 -34 10 -3 22 -31 34 -82 42 -182 130 -392 225 -536 l51 -78 -101 -169 c-55 -93 -100 -175 -100 -182 0 -7 62 -74 138 -150 l139 -138 169 102 c93 56 174 103 180 106 6 2 51 -22 100 -54 164 -106 338 -185 532 -239 9 -3 12 -71 12 -299 l0 -295 -325 0 -325 0 0 -360 0 -360 325 0 325 0 0 -325 0 -325 360 0 360 0 0 325 0 325 325 0 325 0 0 360 0 360 -325 0 -325 0 0 299 0 299 115 37 c127 41 312 129 420 199 39 25 73 46 76 46 4 0 82 -45 175 -100 93 -55 173 -100 179 -100 5 0 72 65 148 145 l138 144 -100 169 c-55 92 -101 173 -103 178 -2 6 23 56 54 110 31 54 75 145 98 202 40 101 100 313 100 353 0 25 14 30 185 74 77 20 155 41 173 46 l32 11 0 202 0 203 -117 31 c-65 18 -151 39 -191 48 -64 14 -73 19 -78 43 -60 261 -109 389 -234 606 l-23 40 110 181 110 182 -142 142 -143 143 -177 -107 -177 -106 -56 34 c-116 70 -261 116 -497 156 -71 13 -131 24 -133 25 -2 1 -12 36 -23 76 -11 41 -32 113 -46 162 l-26 87 -207 0 -207 0 -46 -147z m431 -893 c221 -53 426 -191 558 -375 53 -75 125 -226 148 -311 35 -130 38 -332 7 -464 -27 -116 -85 -245 -156 -345 -50 -70 -169 -187 -238 -234 -65 -44 -218 -115 -292 -134 -202 -54 -436 -38 -628 44 -318 135 -538 431 -578 780 -58 503 298 972 801 1054 107 18 267 12 378 -15z"></path>
        </g>
    </g>
    <g transform="matrix(1.6351563403676128,0,0,1.6351563403676128,83.80093724329049,14.701590214865771)" fill="#b469ff">
        <path d="M33.438 8.75 c-0.67711 -1.4584 -1.6147 -2.7605 -2.8126 -3.9063 c-1.25 -1.0938 -2.7344 -1.9531 -4.4531 -2.5781 c-1.875 -0.57289 -3.8541 -0.85938 -5.9375 -0.85938 l-14.609 0 l0 5.8594 l14.063 0 c2.3438 0 4.2969 0.57289 5.8594 1.7188 c1.4584 1.0938 2.1875 2.7604 2.1875 5 c0 2.0313 -0.70313 3.6719 -2.1094 4.9219 c-1.5104 1.1979 -3.4895 1.7969 -5.9374 1.7969 l-14.063 0 l0 17.891 l6.4844 0 l0 -11.953 l7.3438 0 c1.9271 0 3.8802 -0.28648 5.8594 -0.85938 c1.8229 -0.57289 3.3854 -1.3802 4.6875 -2.4218 c1.3541 -1.0416 2.4219 -2.3698 3.2031 -3.9844 c0.78125 -1.5625 1.1719 -3.3854 1.1719 -5.4688 c0 -1.9791 -0.3125 -3.6979 -0.9375 -5.1563 z M57.344 32.6562 c-0.78125 -0.15625 -1.5105 -0.3907 -2.1876 -0.7032 c-1.4584 -0.67711 -2.7344 -1.6146 -3.8281 -2.8125 c-1.0416 -1.0938 -1.875 -2.4479 -2.5 -4.0625 c-0.57289 -1.6146 -0.85938 -3.2552 -0.85938 -4.9219 l0 -0.15625 l0 -0.23438 c0 -1.7188 0.28648 -3.3854 0.85938 -5 c0.67711 -1.6666 1.5105 -2.9948 2.5001 -3.9844 c1.0416 -1.1979 2.2916 -2.1094 3.75 -2.7344 c0.88539 -0.41664 1.6406 -0.67703 2.2656 -0.78117 l0 -5.8594 c-1.8229 0.26039 -3.4375 0.70313 -4.8438 1.3281 c-2.2916 0.98961 -4.2448 2.3177 -5.8594 3.9844 s-2.8906 3.6458 -3.8281 5.9374 s-1.4063 4.6875 -1.4063 7.1875 l0 0.15625 l0 0.23438 c0 2.5521 0.46875 4.948 1.4063 7.1876 c0.83336 2.2396 2.0834 4.1927 3.75 5.8594 c1.6666 1.7188 3.6198 3.0469 5.8594 3.9844 c1.4063 0.625 3.0469 1.0677 4.9219 1.3281 l0 -5.9375 z M78.594 20 l0.000076294 -0.23438 c0 -2.5521 -0.46875 -4.948 -1.4063 -7.1876 c-0.9375 -2.2916 -2.2135 -4.2708 -3.8281 -5.9374 c-1.5625 -1.6666 -3.4896 -2.9688 -5.7813 -3.9063 c-1.3021 -0.625 -2.8906 -1.0677 -4.7656 -1.3281 l0 5.9375 l0.9375 0.3125 c0.46875 0.15625 0.83336 0.28648 1.0938 0.39063 c1.4584 0.67711 2.7344 1.6146 3.8281 2.8125 c1.0416 1.0938 1.875 2.4479 2.5 4.0625 c0.57289 1.6146 0.85938 3.2552 0.85938 4.9219 l0 0.15625 l0 0.23438 c0 1.7188 -0.28648 3.3854 -0.85938 5 c-0.67711 1.6666 -1.5105 2.9948 -2.5001 3.9844 c-1.0416 1.1979 -2.2916 2.1094 -3.75 2.7344 c-0.67711 0.3125 -1.3802 0.54688 -2.1094 0.70313 l0 5.9375 c1.5625 -0.20836 3.125 -0.65109 4.6875 -1.3282 c2.1354 -0.88539 4.0885 -2.2135 5.8594 -3.9844 c1.7188 -1.8229 2.9948 -3.802 3.8281 -5.9374 c0.9375 -2.2916 1.4063 -4.6875 1.4063 -7.1875 l0 -0.15625 z M115.781 38.5937 l-10.078 -14.063 c1.3541 -0.41664 2.552 -0.91141 3.5937 -1.4843 c1.1459 -0.72914 2.0834 -1.5364 2.8125 -2.4218 c0.83336 -0.98961 1.4323 -2.0573 1.797 -3.2032 c0.46875 -1.25 0.70313 -2.6563 0.70313 -4.2188 c0 -1.8229 -0.3125 -3.4635 -0.9375 -4.9219 c-0.625 -1.4063 -1.5365 -2.6302 -2.7344 -3.6719 c-1.1459 -0.98961 -2.6042 -1.7709 -4.3751 -2.3438 c-1.8229 -0.57289 -3.75 -0.85938 -5.7813 -0.85938 l-16.563 0 l0 5.9375 l16.016 0 c2.4479 0 4.3489 0.52086 5.703 1.5625 s2.0313 2.6041 2.0313 4.6875 c0 1.9271 -0.67711 3.4375 -2.0313 4.5313 c-1.3541 1.1459 -3.2291 1.7188 -5.625 1.7188 l-16.094 0 l0 18.75 l6.4844 0 l0 -12.969 l8.2031 0 l9.1406 12.969 l7.7344 0 l0 0 z M151.953 38.5937 l6.5625 0 l0 -27.422 l-6.5625 9.6094 l0 17.813 z M158.516 1.4059999999999988 l-7.0313 0 l-11.484 17.813 l-11.406 -17.813 l-7.0313 0 l0 37.188 l6.5625 0 l0 -26.406 l11.719 17.578 l0.23438 0 l10.234 -15.156 c0.052109 -0.20836 2.7865 -4.6094 8.2031 -13.203 z"></path>
    </g>
</svg>
