<svg width="72.95" height="93.59" viewBox="0 0 72.95 93.59" xmlns="http://www.w3.org/2000/svg">
    <g transform="matrix(0.13259668049692075,0,0,0.13259668049692075,-16.574585062115094,-6.245301931629906)" fill="#b469ff">
        <g xmlns="http://www.w3.org/2000/svg" transform="translate(0.000000,800.000000) scale(0.100000,-0.100000)" fill="#b469ff" stroke="none">
            <path d="M5974 7442 c-44 -58 -72 -86 -82 -84 -49 10 -274 13 -320 4 l-53 -9 -61 81 c-34 44 -63 83 -64 85 -6 7 -199 -78 -197 -86 0 -4 6 -50 12 -102 10 -83 10 -96 -3 -103 -50 -28 -172 -137 -217 -193 -60 -74 -57 -73 -188 -50 -47 8 -85 14 -86 12 -1 -1 -20 -45 -42 -97 l-40 -94 87 -67 87 -67 -14 -79 c-14 -76 -13 -258 2 -294 5 -13 -16 -32 -84 -80 -50 -35 -91 -68 -90 -74 0 -26 77 -190 87 -187 7 1 56 8 109 14 l96 12 26 -34 c45 -61 142 -159 200 -202 31 -23 57 -42 57 -43 1 0 -4 -36 -12 -80 -22 -138 -28 -127 82 -174 53 -23 98 -40 99 -39 1 2 30 41 65 87 l63 83 41 -8 c22 -4 107 -9 188 -9 l147 -1 62 -84 c34 -47 63 -87 65 -89 2 -2 47 14 100 35 l96 39 -6 50 c-4 28 -10 78 -14 111 -8 60 -7 63 17 77 68 41 183 153 247 241 l19 27 103 -17 c61 -10 106 -14 111 -8 4 5 25 49 45 98 l38 89 -23 19 c-13 10 -52 40 -87 65 l-63 47 8 61 c10 77 10 161 0 255 l-8 75 81 60 c56 41 79 64 75 75 -3 8 -20 53 -38 98 l-32 84 -45 -7 c-25 -3 -72 -8 -105 -12 l-60 -5 -38 54 c-38 55 -166 186 -201 205 -18 10 -18 13 -2 122 10 62 16 114 14 116 -1 2 -45 21 -96 43 l-92 41 -66 -87z m-165 -497 c171 -45 310 -177 361 -343 27 -87 27 -217 0 -304 -66 -213 -268 -360 -493 -357 -139 1 -266 58 -366 164 -261 280 -129 740 240 839 70 19 190 20 258 1z"></path>
            <path d="M3127 5953 c-26 -82 -47 -153 -47 -160 0 -6 -26 -17 -57 -23 -120 -24 -267 -61 -341 -86 -76 -26 -219 -95 -277 -133 l-30 -20 -142 89 c-78 49 -158 101 -178 116 l-36 27 -27 -24 c-67 -58 -252 -245 -252 -254 0 -5 47 -86 104 -179 l104 -169 -50 -76 c-97 -147 -197 -388 -228 -547 l-12 -61 -191 -47 c-106 -25 -198 -46 -204 -46 -10 0 -13 -47 -13 -204 l0 -205 58 -16 c31 -10 116 -30 187 -47 72 -16 137 -31 146 -34 10 -3 22 -31 34 -82 42 -182 130 -392 225 -536 l51 -78 -101 -169 c-55 -93 -100 -175 -100 -182 0 -7 62 -74 138 -150 l139 -138 169 102 c93 56 174 103 180 106 6 2 51 -22 100 -54 164 -106 338 -185 532 -239 9 -3 12 -71 12 -299 l0 -295 -325 0 -325 0 0 -360 0 -360 325 0 325 0 0 -325 0 -325 360 0 360 0 0 325 0 325 325 0 325 0 0 360 0 360 -325 0 -325 0 0 299 0 299 115 37 c127 41 312 129 420 199 39 25 73 46 76 46 4 0 82 -45 175 -100 93 -55 173 -100 179 -100 5 0 72 65 148 145 l138 144 -100 169 c-55 92 -101 173 -103 178 -2 6 23 56 54 110 31 54 75 145 98 202 40 101 100 313 100 353 0 25 14 30 185 74 77 20 155 41 173 46 l32 11 0 202 0 203 -117 31 c-65 18 -151 39 -191 48 -64 14 -73 19 -78 43 -60 261 -109 389 -234 606 l-23 40 110 181 110 182 -142 142 -143 143 -177 -107 -177 -106 -56 34 c-116 70 -261 116 -497 156 -71 13 -131 24 -133 25 -2 1 -12 36 -23 76 -11 41 -32 113 -46 162 l-26 87 -207 0 -207 0 -46 -147z m431 -893 c221 -53 426 -191 558 -375 53 -75 125 -226 148 -311 35 -130 38 -332 7 -464 -27 -116 -85 -245 -156 -345 -50 -70 -169 -187 -238 -234 -65 -44 -218 -115 -292 -134 -202 -54 -436 -38 -628 44 -318 135 -538 431 -578 780 -58 503 298 972 801 1054 107 18 267 12 378 -15z"></path>
        </g>
    </g>
</svg>
